<mxfile host="app.diagrams.net" modified="2021-12-05T11:40:50.723Z" agent="5.0 (Windows NT 10.0; Win64; x64) AppleWebKit/537.36 (KHTML, like Gecko) Chrome/96.0.4664.45 Safari/537.36" etag="tPSFaOM0NMYAIKlZD0Ib" version="15.9.1" type="github">
  <diagram id="ojinegle91sdH9U7ZiSd" name="Page-1">
    <mxGraphModel dx="1140" dy="641" grid="1" gridSize="10" guides="1" tooltips="1" connect="1" arrows="1" fold="1" page="1" pageScale="1" pageWidth="827" pageHeight="1169" math="0" shadow="0">
      <root>
        <mxCell id="0" />
        <mxCell id="1" parent="0" />
        <mxCell id="PRt-LPMF5kQsrLrDiw_s-4" style="edgeStyle=orthogonalEdgeStyle;rounded=0;orthogonalLoop=1;jettySize=auto;html=1;fontSize=16;" edge="1" parent="1" source="PRt-LPMF5kQsrLrDiw_s-1" target="PRt-LPMF5kQsrLrDiw_s-2">
          <mxGeometry relative="1" as="geometry" />
        </mxCell>
        <mxCell id="PRt-LPMF5kQsrLrDiw_s-1" value="&lt;font style=&quot;font-size: 16px&quot;&gt;game&lt;/font&gt;" style="rounded=1;whiteSpace=wrap;html=1;" vertex="1" parent="1">
          <mxGeometry x="90" y="220" width="90" height="40" as="geometry" />
        </mxCell>
        <mxCell id="PRt-LPMF5kQsrLrDiw_s-5" style="edgeStyle=orthogonalEdgeStyle;rounded=0;orthogonalLoop=1;jettySize=auto;html=1;fontSize=16;" edge="1" parent="1" source="PRt-LPMF5kQsrLrDiw_s-2" target="PRt-LPMF5kQsrLrDiw_s-3">
          <mxGeometry relative="1" as="geometry" />
        </mxCell>
        <mxCell id="PRt-LPMF5kQsrLrDiw_s-2" value="&lt;font style=&quot;font-size: 16px&quot;&gt;gate&lt;/font&gt;" style="rounded=1;whiteSpace=wrap;html=1;" vertex="1" parent="1">
          <mxGeometry x="270" y="220" width="90" height="40" as="geometry" />
        </mxCell>
        <mxCell id="PRt-LPMF5kQsrLrDiw_s-3" value="&lt;font style=&quot;font-size: 16px&quot;&gt;client&lt;/font&gt;" style="rounded=1;whiteSpace=wrap;html=1;" vertex="1" parent="1">
          <mxGeometry x="440" y="220" width="90" height="40" as="geometry" />
        </mxCell>
      </root>
    </mxGraphModel>
  </diagram>
</mxfile>
